<svg class="icon" viewBox="0 0 33 33" version="1.1"
  xmlns="http://www.w3.org/2000/svg" xmlns:xlink="http://www.w3.org/1999/xlink"
  width="33" height="33" >
  <path d="M26.567 7.648a7.333 7.333 0 0 1 -0.609 -0.355 8.617 8.617 0 0 1 -1.564 -1.329c-1.167 -1.335 -1.602 -2.689 -1.763 -3.637h0.006c-0.135 -0.786 -0.08 -1.295 -0.071 -1.295h-5.314v20.546c0 0.276 0 0.548 -0.012 0.818 0 0.034 -0.004 0.064 -0.005 0.101q0.001 0.022 -0.004 0.046v0.012a4.51 4.51 0 0 1 -2.27 3.581 4.437 4.437 0 0 1 -2.198 0.58c-2.476 0 -4.482 -2.018 -4.482 -4.512s2.007 -4.512 4.482 -4.512a4.492 4.492 0 0 1 1.38 0.218l0.006 -5.41a9.872 9.872 0 0 0 -7.606 2.225 10.45 10.45 0 0 0 -2.275 2.806c-0.225 0.387 -1.071 1.941 -1.173 4.462 -0.064 1.432 0.366 2.915 0.57 3.527v0.013c0.129 0.361 0.629 1.592 1.443 2.631a10.817 10.817 0 0 0 2.303 2.172v-0.013l0.013 0.013c2.572 1.748 5.424 1.633 5.424 1.633 0.494 -0.02 2.148 0 4.026 -0.89 2.083 -0.986 3.269 -2.457 3.269 -2.457a10.267 10.267 0 0 0 1.781 -2.96c0.481 -1.264 0.642 -2.78 0.642 -3.386V11.375c0.064 0.038 0.923 0.607 0.923 0.607s1.237 0.793 3.166 1.309c1.384 0.368 3.25 0.445 3.25 0.445V8.461c-0.654 0.071 -1.981 -0.136 -3.339 -0.813"></path>
</svg>